# AST/ASF file generated using VICON BodyLanguage
# -----------------------------------------------
:version 1.10
:name VICON
:units
  mass 1.0
  length 0.45
  angle deg
:documentation
   .ast/.asf automatically generated from VICON data using
   VICON BodyBuilder and BodyLanguage model FoxedUp or BRILLIANT.MOD
:root
   order TX TY TZ RX RY RZ
   axis XYZ
   position 0 0 0  
   orientation 0 0 0 
:bonedata
  begin
     id 1 
     name lhipjoint
     direction 0.596438 -0.722117 0.35044 
     length 2.43043 
     axis 0 0 0  XYZ
  end
  begin
     id 2 
     name lfemur
     direction 0.34202 -0.939693 0  
     length 7.0339  
     axis 0 0 20  XYZ
    dof rx ry rz
    limits (-160.0 20.0)
           (-70.0 70.0)
           (-60.0 70.0)
  end
  begin
     id 3 
     name ltibia
     direction 0.34202 -0.939693 0   
     length 7.56602   
     axis 0 0 20   XYZ
    dof rx
    limits (-10.0 170.0)
  end
  begin
     id 4 
     name lfoot
     direction 0.0985677 -0.270812 0.957572   
     length 1.85172   
     axis -90 7.62852e-016 20   XYZ
    dof rx rz
    limits (-45.0 90.0)
           (-70.0 20.0)
  end
  begin
     id 5 
     name ltoes
     direction 1.53534e-011 -4.21843e-011 1   
     length 0.929904   
     axis -90 7.62852e-016 20   XYZ
    dof rx
    limits (-90.0 20.0)
  end
  begin
     id 6 
     name rhipjoint
     direction -0.585088 -0.729594 0.354068   
     length 2.40552  
     axis 0 0 0  XYZ 
  end
  begin
     id 7 
     name rfemur
     direction -0.34202 -0.939693 0   
     length 7.12573   
     axis 0 0 -20   XYZ
    dof rx ry rz
    limits (-160.0 20.0)
           (-70.0 70.0)
           (-70.0 60.0)
  end
  begin
     id 8 
     name rtibia
     direction -0.34202 -0.939693 0   
     length 7.35777   
     axis 0 0 -20   XYZ
    dof rx
    limits (-10.0 170.0)
 end
 begin
     id 9 
     name rfoot
     direction -0.120907 -0.33219 0.935431   
     length 2.0994  
     axis -90 -7.62852e-016 -20   XYZ
    dof rx rz
    limits (-45.0 90.0)
           (-20.0 70.0)
  end
  begin
     id 10 
     name rtoes
     direction -1.53577e-011 -4.21787e-011 1   
     length 1.04244   
     axis -90 -7.62852e-016 -20   XYZ
    dof rx
    limits (-90.0 20.0)
  end
  begin
     id 11 
     name lowerback
     direction 0.00268363 0.993603 -0.112896   
     length 2.15839   
     axis 0 0 0   XYZ
    dof rx ry rz
    limits (-20.0 45.0)
           (-30.0 30.0)
           (-30.0 30.0)
  end
  begin
     id 12 
     name upperback
     direction 0.0272563 0.999411 -0.0208618   
     length 2.16443   
     axis 0 0 0   XYZ
    dof rx ry rz
    limits (-20.0 45.0)
           (-30.0 30.0)
           (-30.0 30.0)
  end
  begin
     id 13 
     name thorax
     direction 0.0254655 0.999174 0.0316806   
     length 2.19003   
     axis 0 0 0   XYZ
    dof rx ry rz
    limits (-20.0 45.0)
           (-30.0 30.0)
           (-30.0 30.0)
  end
  begin
     id 14 
     name lowerneck
     direction -0.0102178 0.988048 0.15381   
     length 1.61507   
     axis 0 0 0   XYZ
    dof rx ry rz
    limits (-20.0 45.0)
           (-30.0 30.0)
           (-30.0 30.0)
  end
  begin
     id 15 
     name upperneck
     direction -0.0061965 0.994088 -0.108398   
     length 1.64042   
     axis 0 0 0   XYZ
    dof rx ry rz
    limits (-20.0 45.0)
           (-30.0 30.0)
           (-30.0 30.0)
  end
  begin
     id 16
     name head
     direction -0.00151929 0.998591 -0.0530385  
     length 1.64343  
     axis 0 0 0   XYZ
    dof rx ry rz
    limits (-20.0 45.0)
           (-30.0 30.0)
           (-30.0 30.0)
  end
  begin
     id 17 
     name lclavicle
     direction 0.948974 0.284245 -0.136574  
     length 3.3483  
     axis 0 0 0   XYZ
    dof ry rz
    limits (-20.0 10.0)
           (0.0 20.0)
  end
  begin
     id 18 
     name lhumerus
     direction 1 -4.48961e-011 1.68576e-027   
     length 4.93485   
     axis -180 -30 -90   XYZ
    dof rx ry rz
    limits (-60.0 90.0)
           (-90.0 90.0)
           (-90.0 90.0)
  end
  begin
     id 19
     name lradius
     direction 1 -4.48965e-011 -2.46405e-027   
     length 3.41719   
     axis -180 -30 -90   XYZ
    dof rx
    limits (-10.0 170.0)
  end
  begin
     id 20
     name lwrist
     direction 1 -4.48968e-011 -8.00486e-028   
     length 1.7086   
     axis 3.27501e-015 90 90   XYZ
    dof ry
    limits (-180.0 0.0)
 end
  begin
     id 21 
     name lhand
     direction 1 -4.48977e-011 -1.60161e-027   
     length 0.6241   
     axis 1.02148e-015 90 90   XYZ
    dof rx rz
    limits (-90.0 90.0)
           (-45.0 45.0)
  end
  begin
     id 22 
     name lfingers
     direction 1 -4.49049e-011 -3.21275e-027   
     length 0.503166   
     axis 2.04295e-015 90 90   XYZ
    dof rx
    limits (0.0 90.0)
  end
  begin
     id 23
     name lthumb
     direction 0.707107 -6.34975e-011 0.707107   
     length 0.722448   
     axis -90 45 -1.62303e-014   XYZ
    dof rx rz
    limits (-45.0 45.0)
           (-45.0 45.0)
  end
  begin
     id 24 
     name rclavicle
     direction -0.904485 0.355099 -0.236246   
     length 3.18329  
     axis 0 0 0   XYZ 
    dof ry rz
    limits (-10.0 20.0)
           (-20.0 0.0)
  end
  begin
     id 25 
     name rhumerus
     direction -1 -4.48953e-011 1.32816e-027  
     length 5.22034   
     axis -180 30 90   XYZ
    dof rx ry rz
    limits (-90.0 60.0)
           (-90.0 90.0)
           (-90.0 90.0)
  end
  begin
     id 26 
     name rradius
     direction -1 -4.48965e-011 -3.93727e-027   
     length 3.41809   
     axis -180 30 90   XYZ
    dof rx
    limits (-10.0 170.0)
  end
  begin
     id 27 
     name rwrist
     direction -1 -4.48962e-011 -8.003e-028   
     length 1.70904   
     axis 3.27501e-015 -90 -90   XYZ
    dof ry
    limits (-180.0 0.0)
  end
  begin
     id 28
     name rhand
     direction -1 -4.49008e-011 -1.60365e-027   
     length 0.77534   
     axis 1.02148e-015 -90 -90   XYZ
    dof rx rz
    limits (-90.0 90.0)
           (-45.0 45.0)
  end
  begin
     id 29
     name rfingers
     direction -1 -4.49001e-011 -3.2064e-027   
     length 0.625099   
     axis 2.04295e-015 -90 -90   XYZ
    dof rx
    limits (0.0 90.0)
  end
  begin
     id 30
     name rthumb
     direction -0.707107 -6.34989e-011 0.707107   
     length 0.897521   
     axis -90 -45 1.62303e-014   XYZ
    dof rx rz
    limits (-45.0 45.0)
           (-45.0 45.0)
  end
:hierarchy
  begin
    root lhipjoint rhipjoint lowerback
    lhipjoint lfemur
    lfemur ltibia
    ltibia lfoot
    lfoot ltoes
    rhipjoint rfemur
    rfemur rtibia
    rtibia rfoot
    rfoot rtoes
    lowerback upperback
    upperback thorax
    thorax lowerneck lclavicle rclavicle
    lowerneck upperneck
    upperneck head
    lclavicle lhumerus
    lhumerus lradius
    lradius lwrist
    lwrist lhand lthumb
    lhand lfingers
    rclavicle rhumerus
    rhumerus rradius
    rradius rwrist
    rwrist rhand rthumb
    rhand rfingers
  end

#!OML:ASF \\sashay\E\Suitcase\Project 1\Capture day 1\Session 1\Male1.ASF
:FULLY-SPECIFIED
:DEGREES
263
root 0.544468 17.6588 -36.1348 5.02327 -13.0679 -1.08918
lowerback 30.1024 -2.36636 11.0634
upperback 7.69878 1.09369 10.3292
thorax -7.18564 0.28273 4.70254
lowerneck -11.9295 -5.44748 -3.56779
upperneck 15.0029 -5.65441 -6.85609
head 6.44906 -3.5055 -2.12045
rclavicle -4.13472e-014 -1.04958e-013
rhumerus -19.513 3.24518 -66.3198
rradius 29.619
rwrist -10.4427
rhand -21.2779 16.0745
rfingers 7.12502
rthumb 5.10606 -13.844
lclavicle -4.13472e-014 -1.04958e-013
lhumerus -35.4972 -9.7381 97.2021
lradius 53.0044
lwrist 3.25436
lhand -5.94113 40.7388
lfingers 7.12502
lthumb 19.8889 69.7411
rfemur -12.5128 5.97087 23.0221
rtibia 23.4298
rfoot -14.6918 -4.16466
rtoes 14.1277
lfemur -24.077 2.20001 -13.5079
ltibia 49.6746
lfoot -4.48468 6.50328
ltoes 6.36334
264
root 0.519617 17.6621 -36.0836 4.80054 -12.7831 -1.24724
lowerback 29.8742 -2.49406 11.2139
upperback 7.44098 0.963286 10.0971
thorax -7.3542 0.21906 4.41822
lowerneck -11.6429 -5.32797 -3.75961
upperneck 14.7406 -5.53785 -6.52134
head 6.33391 -3.42191 -1.95663
rclavicle -3.33958e-014 -1.04958e-013
rhumerus -20.4087 2.63437 -66.8028
rradius 29.2607
rwrist -10.4245
rhand -21.934 16.104
rfingers 7.12502
rthumb 4.47251 -13.8288
lclavicle -3.33958e-014 -1.04958e-013
lhumerus -35.7753 -9.53836 96.9631
lradius 52.6048
lwrist 3.11075
lhand -5.56255 41.2068
lfingers 7.12502
lthumb 20.2528 70.1709
rfemur -11.8547 5.85102 23.3271
rtibia 23.1435
rfoot -14.6486 -4.41467
rtoes 14.6626
lfemur -24.0022 1.91505 -13.3134
ltibia 50.4172
lfoot -4.85988 6.44092
ltoes 11.0947
265
root 0.490797 17.6616 -36.0369 4.88267 -12.8002 -1.82722
lowerback 29.3829 -2.48208 11.4645
upperback 7.38126 0.965948 10.0258
thorax -7.19755 0.224856 4.20008
lowerneck -12.01 -5.29168 -3.81269
upperneck 14.6543 -5.46237 -6.49572
head 6.37355 -3.38944 -1.94373
rclavicle 2.38542e-014 4.77083e-014
rhumerus -21.0832 2.32932 -67.2105
rradius 29.2163
rwrist -10.3626
rhand -21.6436 16.9684
rfingers 7.12502
rthumb 4.75289 -12.9583
lclavicle 2.38542e-014 4.77083e-014
lhumerus -35.6578 -9.21 96.6821
lradius 52.0665
lwrist 2.70622
lhand -5.85859 40.7234
lfingers 7.12502
lthumb 19.9683 69.7174
rfemur -11.4981 6.13612 24.0879
rtibia 22.8529
rfoot -14.6856 -4.76087
rtoes 16.1033
lfemur -24.2459 2.00289 -12.6684
ltibia 51.1322
lfoot -4.7698 6.58465
ltoes 11.4557
266
root 0.467362 17.6538 -35.9861 4.71367 -12.6749 -1.51383
lowerback 28.6934 -2.28843 10.7814
upperback 7.51662 0.902338 9.70865
thorax -7.30613 0.252602 4.50791
lowerneck -11.8214 -5.26008 -3.76958
upperneck 14.2538 -5.46086 -6.48828
head 6.2118 -3.37346 -1.93096
rclavicle -1.59028e-014 -3.18055e-015
rhumerus -22.0365 1.97889 -67.3865
rradius 29.0063
rwrist -10.5489
rhand -21.2702 17.2695
rfingers 7.12502
rthumb 5.11341 -12.6488
lclavicle -1.59028e-014 -3.18055e-015
lhumerus -35.8843 -8.9175 96.592
lradius 51.5997
lwrist 2.36182
lhand -6.20639 39.9099
lfingers 7.12502
lthumb 19.6339 68.9384
rfemur -10.8682 5.85945 23.827
rtibia 22.4577
rfoot -14.6709 -4.52635
rtoes 14.4645
lfemur -24.358 1.84345 -13.0846
ltibia 51.8477
lfoot -4.60266 7.22039
ltoes 13.9746
267
root 0.446448 17.6515 -35.934 4.69365 -12.3994 -1.69349
lowerback 28.1123 -2.17344 10.6718
upperback 7.37469 0.949188 9.77588
thorax -7.19166 0.281014 4.61177
lowerneck -11.4128 -5.28567 -4.19614
upperneck 13.5194 -5.53045 -6.16979
head 5.93074 -3.38015 -1.73713
rclavicle -3.18055e-014 -8.26944e-014
rhumerus -22.4733 0.963545 -67.2557
rradius 28.3871
rwrist -9.93215
rhand -21.3697 17.8726
rfingers 7.12502
rthumb 5.01736 -12.048
lclavicle -3.18055e-014 -8.26944e-014
lhumerus -35.6838 -8.72455 96.6987
lradius 51.0638
lwrist 2.49721
lhand -6.56066 39.7768
lfingers 7.12502
lthumb 19.2933 68.8398
rfemur -10.4603 5.51954 24.1238
rtibia 22.2272
rfoot -14.8277 -4.48451
rtoes 14.3157
lfemur -24.6 1.67109 -12.9668
ltibia 52.525
lfoot -3.8823 7.34774
ltoes 15.1192
268
root 0.419511 17.6645 -35.8877 4.61546 -12.4619 -1.99778
lowerback 27.9179 -2.21241 10.7621
upperback 7.15905 0.904735 9.54682
thorax -7.33739 0.255339 4.31107
lowerneck -11.3026 -5.13941 -4.04451
upperneck 13.1319 -5.38635 -6.1593
head 5.78617 -3.29059 -1.7324
rclavicle 9.54166e-015 4.45278e-014
rhumerus -23.3009 0.703045 -67.723
rradius 28.1181
rwrist -10.0916
rhand -21.256 18.5425
rfingers 7.12502
rthumb 5.12713 -11.3755
lclavicle 9.54166e-015 4.45278e-014
lhumerus -36.074 -8.29807 96.3045
lradius 50.8921
lwrist 2.57021
lhand -6.56022 39.7952
lfingers 7.12502
lthumb 19.2937 68.8581
rfemur -10.0223 5.72172 24.5358
rtibia 21.9441
rfoot -14.807 -4.64059
rtoes 17.3833
lfemur -24.6978 1.86324 -12.7148
ltibia 53.1759
lfoot -3.67428 6.99399
ltoes 15.0796
269
root 0.394944 17.6478 -35.8367 4.57952 -12.3887 -2.05355
lowerback 27.5122 -2.21128 10.5664
upperback 6.94963 0.804881 9.40079
thorax -7.38092 0.210461 4.27703
lowerneck -11.107 -5.02296 -4.33846
upperneck 12.7605 -5.23635 -5.96535
head 5.65245 -3.20546 -1.59844
rclavicle -4.45278e-014 -3.81667e-014
rhumerus -24.0515 0.987908 -68.0534
rradius 27.9464
rwrist -10.222
rhand -21.5954 18.7327
rfingers 7.12502
rthumb 4.79944 -11.193
lclavicle -4.45278e-014 -3.81667e-014
lhumerus -36.2375 -7.52486 96.0319
lradius 50.5751
lwrist 2.39437
lhand -6.88404 39.1925
lfingers 7.12502
lthumb 18.9823 68.2863
rfemur -9.67719 5.93648 24.6866
rtibia 21.8381
rfoot -15.0763 -4.87996
rtoes 16.2974
lfemur -24.9075 1.90951 -12.6681
ltibia 53.8675
lfoot -3.29406 7.21903
ltoes 18.0286
270
root 0.376196 17.628 -35.7846 4.44751 -12.0761 -1.91732
lowerback 26.9041 -2.14406 10.392
upperback 6.92709 0.731056 9.20072
thorax -7.10685 0.188001 4.14313
lowerneck -11.3564 -4.89099 -4.61254
upperneck 12.5059 -5.06438 -5.51714
head 5.63564 -3.09753 -1.40303
rclavicle -2.06736e-014 -7.95139e-014
rhumerus -24.3794 -0.374717 -68.1318
rradius 27.2498
rwrist -9.48659
rhand -22.0091 18.714
rfingers 7.12502
rthumb 4.39998 -11.2203
lclavicle -2.06736e-014 -7.95139e-014
lhumerus -35.9865 -7.49024 95.8482
lradius 50.0596
lwrist 2.31769
lhand -7.04266 38.5754
lfingers 7.12502
lthumb 18.8298 67.684
rfemur -9.01175 5.49351 24.6495
rtibia 21.5674
rfoot -15.3626 -4.88767
rtoes 14.6575
lfemur -25.2235 1.74566 -12.9648
ltibia 54.575
lfoot -3.07921 7.45292
ltoes 19.2804
271
root 0.353013 17.6317 -35.7384 4.46715 -11.9187 -1.9516
lowerback 26.3623 -2.0136 10.1509
upperback 6.62634 0.783135 9.08595
thorax -7.18494 0.215053 4.11874
lowerneck -10.7901 -4.82363 -4.40033
upperneck 12.2729 -5.02047 -5.8166
head 5.4532 -3.07496 -1.50442
rclavicle 7.95139e-015 -9.54166e-015
rhumerus -25.3152 -0.482661 -68.2718
rradius 26.7957
rwrist -9.71723
rhand -22.3978 19.458
rfingers 7.12502
rthumb 4.0246 -10.4837
lclavicle 7.95139e-015 -9.54166e-015
lhumerus -36.1818 -7.24758 95.7191
lradius 49.6019
lwrist 2.62324
lhand -6.68295 40.0599
lfingers 7.12502
lthumb 19.1757 69.1346
rfemur -8.87299 5.68246 24.7529
rtibia 21.4336
rfoot -15.4005 -5.14007
rtoes 17.3901
lfemur -25.5377 1.80766 -12.9499
ltibia 55.2855
lfoot -3.27893 7.631
ltoes 21.0182
272
root 0.321408 17.6145 -35.6884 4.48645 -11.8026 -2.30858
lowerback 26.05 -2.02479 10.1937
upperback 6.4483 0.751165 9.02956
thorax -7.22898 0.198134 4.03522
lowerneck -10.6551 -4.82832 -4.86966
upperneck 11.8046 -5.04224 -5.35833
head 5.30875 -3.05961 -1.27594
rclavicle 6.36111e-015 -9.54166e-015
rhumerus -25.7851 -0.731945 -68.457
rradius 26.2458
rwrist -9.19378
rhand -22.8473 19.3347
rfingers 7.12502
rthumb 3.59052 -10.6148
lclavicle 6.36111e-015 -9.54166e-015
lhumerus -36.3483 -6.75014 95.4624
lradius 49.3459
lwrist 2.71706
lhand -7.24674 38.9172
lfingers 7.12502
lthumb 18.6335 68.0447
rfemur -8.32796 5.71289 25.3001
rtibia 21.1704
rfoot -15.5991 -5.41104
rtoes 14.2803
lfemur -25.9456 1.99455 -12.6511
ltibia 56.0152
lfoot -2.64794 7.75243
ltoes 20.5775
273
root 0.297432 17.6221 -35.638 4.38456 -11.7614 -2.61426
lowerback 25.7847 -1.91811 10.257
upperback 6.34739 0.864505 8.89554
thorax -7.20637 0.251924 3.80323
lowerneck -10.5946 -4.87938 -4.85156
upperneck 11.393 -5.17909 -5.0265
head 5.1761 -3.09002 -1.17589
rclavicle 1.74931e-014 -1.59028e-014
rhumerus -26.4079 -1.40124 -68.5925
rradius 25.8458
rwrist -8.7247
rhand -23.3834 19.7414
rfingers 7.12502
rthumb 3.07288 -10.2162
lclavicle 1.74931e-014 -1.59028e-014
lhumerus -36.2046 -6.57636 95.1373
lradius 48.8651
lwrist 2.57214
lhand -6.53287 39.4852
lfingers 7.12502
lthumb 19.32 68.5455
rfemur -7.98136 5.99142 25.7024
rtibia 20.9962
rfoot -15.6368 -5.5862
rtoes 17.1566
lfemur -25.9489 2.14064 -12.3674
ltibia 56.6636
lfoot -2.58595 7.8885
ltoes 22.9061
274
root 0.27782 17.6049 -35.588 4.28016 -11.4965 -2.42467
lowerback 25.3913 -1.8686 10.0454
upperback 6.20972 0.809616 8.60566
thorax -7.16456 0.231561 3.59865
lowerneck -11.2963 -4.76624 -4.61135
upperneck 11.8146 -4.97107 -5.20538
head 5.41545 -3.00962 -1.28167
rclavicle -6.36111e-015 -5.40694e-014
rhumerus -27.0754 -1.97229 -68.7593
rradius 25.5926
rwrist -8.35552
rhand -23.5653 19.7633
rfingers 7.12502
rthumb 2.89722 -10.1968
lclavicle -6.36111e-015 -5.40694e-014
lhumerus -36.1083 -6.44274 94.836
lradius 48.5214
lwrist 2.86283
lhand -6.97988 39.5523
lfingers 7.12502
lthumb 18.8902 68.6551
rfemur -7.41761 5.6355 25.5925
rtibia 20.6544
rfoot -15.7073 -5.60951
rtoes 14.467
lfemur -26.1148 1.84187 -12.6287
ltibia 57.3262
lfoot -2.99626 7.78098
ltoes 24.379
275
root 0.252915 17.6092 -35.5296 4.2495 -11.3397 -2.47637
lowerback 24.8986 -1.80001 9.80049
upperback 5.8226 0.809276 8.52941
thorax -7.35718 0.22982 3.64589
lowerneck -10.1212 -4.68769 -5.05084
upperneck 11.1541 -4.95939 -4.80988
head 5.03404 -2.9647 -1.04293
rclavicle -3.97569e-014 -6.67916e-014
rhumerus -28.149 -1.79616 -68.8234
rradius 25.2437
rwrist -8.1561
rhand -24.0671 19.7078
rfingers 7.12502
rthumb 2.41258 -10.2583
lclavicle -3.97569e-014 -6.67916e-014
lhumerus -36.7082 -5.85467 94.7193
lradius 48.2796
lwrist 2.78395
lhand -7.20111 39.3706
lfingers 7.12502
lthumb 18.6774 68.4939
rfemur -7.07566 5.75406 25.7354
rtibia 20.449
rfoot -15.8054 -5.89492
rtoes 14.5457
lfemur -26.3366 1.96129 -12.6734
ltibia 57.8228
lfoot -2.95085 7.3024
ltoes 25.3753
276
root 0.22315 17.6083 -35.481 4.17853 -11.3633 -2.58904
lowerback 24.2099 -1.55173 9.69245
upperback 6.06799 0.945147 8.36821
thorax -6.72749 0.314393 3.44982
lowerneck -10.9546 -4.71527 -4.90949
upperneck 11.1056 -4.96166 -4.78495
head 5.15449 -2.96544 -1.0796
rclavicle 2.22639e-014 5.725e-014
rhumerus -27.7119 -3.75277 -68.567
rradius 23.8853
rwrist -7.02297
rhand -23.6757 20.6299
rfingers 7.12502
rthumb 2.79059 -9.33154
lclavicle 2.22639e-014 5.725e-014
lhumerus -36.0704 -5.74871 94.4119
lradius 47.9298
lwrist 2.50139
lhand -6.94413 39.1965
lfingers 7.12502
lthumb 18.9246 68.2959
rfemur -6.6304 5.84765 25.9685
rtibia 20.2327
rfoot -15.9189 -5.90832
rtoes 14.751
lfemur -26.5677 2.14052 -12.5761
ltibia 58.3712
lfoot -3.17791 7.65429
ltoes 27.157
277
root 0.204592 17.6014 -35.432 4.11015 -10.951 -2.6015
lowerback 23.7607 -1.56696 9.61672
upperback 5.99623 0.840769 8.23052
thorax -6.57832 0.271078 3.35623
lowerneck -11.0932 -4.73277 -5.01741
upperneck 10.7809 -4.99503 -4.59295
head 5.08359 -2.96577 -1.00335
rclavicle -4.77083e-015 -5.08889e-014
rhumerus -27.7657 -4.47102 -68.5243
rradius 23.1855
rwrist -6.50614
rhand -24.4032 20.7561
rfingers 7.12502
rthumb 2.08793 -9.21341
lclavicle -4.77083e-015 -5.08889e-014
lhumerus -35.8535 -5.35472 94.1325
lradius 47.5432
lwrist 2.82139
lhand -6.96974 38.2556
lfingers 7.12502
lthumb 18.8999 67.3574
rfemur -6.30914 5.18577 26.0567
rtibia 20.1032
rfoot -15.9793 -5.74869
rtoes 14.228
lfemur -26.77 1.84851 -12.62
ltibia 58.7273
lfoot -3.44789 6.95229
ltoes 25.6627
